<?xml version="1.0" standalone="no"?>
<!DOCTYPE svg PUBLIC "-//W3C//DTD SVG 20010904//EN"
 "http://www.w3.org/TR/2001/REC-SVG-20010904/DTD/svg10.dtd">
<svg version="1.0" xmlns="http://www.w3.org/2000/svg"
 width="751.000000pt" height="751.000000pt" viewBox="0 0 751.000000 751.000000"
 preserveAspectRatio="xMidYMid meet">
<metadata>
Created by potrace 1.11, written by Peter Selinger 2001-2013
</metadata>
<g transform="translate(0.000000,751.000000) scale(0.100000,-0.100000)"
fill="#000000" stroke="none">
<path d="M3538 7505 c-1 -1 -44 -6 -95 -9 -50 -3 -106 -8 -125 -10 -18 -3 -52
-7 -76 -10 -37 -5 -131 -21 -247 -42 -121 -21 -314 -69 -385 -95 -482 -174
-743 -309 -1150 -598 -47 -33 -93 -60 -103 -61 -9 0 -22 -11 -29 -24 -12 -27
-205 -217 -283 -279 -27 -21 -58 -53 -69 -71 -10 -17 -22 -33 -25 -36 -9 -6
-190 -233 -255 -318 -27 -35 -55 -66 -63 -69 -8 -3 -27 -34 -43 -69 -16 -35
-53 -105 -83 -156 -209 -359 -360 -769 -442 -1208 -3 -14 -7 -36 -10 -50 -3
-14 -7 -41 -9 -60 -3 -19 -7 -51 -11 -71 -22 -135 -30 -263 -30 -514 0 -288 8
-387 51 -635 20 -122 20 -121 59 -279 86 -351 241 -733 404 -1001 25 -41 52
-87 59 -103 6 -15 17 -38 24 -52 6 -14 27 -42 46 -63 61 -68 84 -102 84 -125
0 -16 11 -29 33 -41 17 -10 46 -36 63 -58 105 -136 332 -365 516 -519 16 -13
34 -29 40 -34 48 -45 283 -219 331 -245 33 -18 87 -50 121 -71 195 -120 757
-368 849 -374 6 0 15 -3 20 -7 9 -5 104 -27 185 -41 14 -3 63 -13 110 -22 144
-28 234 -42 390 -60 168 -19 433 -25 570 -11 41 4 100 9 130 12 109 9 288 36
435 64 190 37 213 41 253 45 18 2 44 10 57 19 12 8 60 27 106 42 312 100 785
347 1034 538 252 194 535 462 683 646 51 62 81 90 98 90 9 0 14 10 14 27 0 26
24 64 81 125 16 18 48 69 71 113 22 44 45 87 52 95 6 8 16 24 22 35 6 11 25
46 43 78 142 255 258 554 337 863 24 94 46 187 49 205 3 19 8 41 10 49 2 8 6
33 9 55 4 22 8 51 11 65 6 32 12 82 20 150 3 30 8 69 11 85 9 57 13 550 4 630
-19 192 -21 208 -36 295 -4 25 -8 52 -10 60 -1 8 -12 62 -24 120 -12 58 -26
123 -30 145 -15 68 -78 279 -119 392 -79 221 -177 432 -283 609 -29 49 -65
114 -80 144 -14 30 -40 70 -57 88 -55 59 -81 98 -81 123 0 17 -9 28 -27 37
-16 7 -47 36 -71 65 -73 89 -108 126 -296 317 -101 102 -191 197 -201 213 -9
15 -25 27 -34 28 -9 0 -47 22 -86 50 -258 182 -412 277 -611 377 -304 152
-615 265 -847 306 -15 2 -35 7 -45 10 -19 6 -35 9 -162 30 -113 20 -143 24
-220 31 -36 4 -76 9 -90 12 -28 5 -536 13 -542 8z"/>
</g>
</svg>
